<?xml version="1.0" encoding="UTF-8" standalone="no"?>
<svg
   viewBox="-2.4 -12.3 904.1 290.5"
   width="2500"
   height="835"
   version="1.1"
   id="svg17"
   sodipodi:docname="stan-logo.svg"
   xmlns:inkscape="http://www.inkscape.org/namespaces/inkscape"
   xmlns:sodipodi="http://sodipodi.sourceforge.net/DTD/sodipodi-0.dtd"
   xmlns:xlink="http://www.w3.org/1999/xlink"
   xmlns="http://www.w3.org/2000/svg"
   xmlns:svg="http://www.w3.org/2000/svg">
  <defs
     id="defs21">
    <linearGradient
       id="linearGradient883">
      <stop
         offset="0"
         stop-color="#0072ff"
         id="stop879"
         style="stop-color:#ffffff;stop-opacity:1;" />
      <stop
         offset="1"
         stop-color="#09f"
         id="stop881"
         style="stop-color:#ffffff;stop-opacity:1;" />
    </linearGradient>
  </defs>
  <sodipodi:namedview
     id="namedview19"
     pagecolor="#ffffff"
     bordercolor="#000000"
     borderopacity="0.25"
     inkscape:showpageshadow="2"
     inkscape:pageopacity="0.0"
     inkscape:pagecheckerboard="0"
     inkscape:deskcolor="#d1d1d1"
     showgrid="false" />
  <linearGradient
     id="a">
    <stop
       offset="0"
       stop-color="#0072ff"
       id="stop2"
       style="stop-color:#ffffff;stop-opacity:1;" />
    <stop
       offset="1"
       stop-color="#09f"
       id="stop4"
       style="stop-color:#ffffff;stop-opacity:1;" />
  </linearGradient>
  <linearGradient
     id="b"
     gradientUnits="userSpaceOnUse"
     x1="408.63901"
     x2="408.63901"
     xlink:href="#linearGradient883"
     y1="267.31699"
     y2="69.193001" />
  <linearGradient
     id="c"
     gradientUnits="userSpaceOnUse"
     x1="864.59998"
     x2="864.59998"
     xlink:href="#a"
     y1="268.70001"
     y2="-0.70099998" />
  <path
     d="m 744.2,60.3 c -37.3,0 -54.3,19 -54.3,19 v -15 h -86.5 v 132.5 c 0,0 -9.8,4.3 -16.5,2.5 -6.7,-1.8 -6.7,-11.3 -6.7,-11.3 V 64.3 H 494 v 17.8 c 0,0 -14.8,-15.8 -32.3,-19.2 -26.4,-5 -60.5,-1.7 -88.5,32.8 -28,34.5 -19.8,86.5 -19.8,86.5 0,0 -23.3,14.2 -41.7,14.2 -18.3,0 -17.3,-16.2 -17.3,-16.2 V 130 h 57 V 64.3 h -58 V 15 h -85.7 v 140.2 c 0,0 -4.6,-28.4 -70.5,-48.8 -32.4,-10 -54.7,-12.8 -50.8,-27 3.2,-11.7 22.5,-10.7 22.5,-10.7 39.3,0 78.8,26.4 78.8,26.4 V 15.7 c 0,0 -5.5,-2.5 -14.8,-5.7 C 145.3,0.9 82.2,-12.3 28.7,24.2 3.1,46.1 -2.4,76.8 0.8,101.4 2.7,114 7.1,124.9 13,132 c 19.2,22.7 62.5,32.3 82.7,36.7 20.2,4.3 30.8,9.3 30.8,19.8 C 126.5,199 113.4,206 83,201.2 52.7,196.3 23.7,176 23.7,176 l -21,72.7 c 0,0 49.8,29.5 122.7,21.3 72.8,-8.2 83.8,-63 83.8,-63 0.3,-5.3 -3.5,58.3 65.3,64.5 61.2,5.5 104.3,-28.7 104.3,-28.7 0,0 18.7,28.5 63.3,28.5 44.7,0 58.7,-27.8 58.7,-27.8 0,0 6,27.8 52.3,27.8 42.5,0 50.3,-7 50.3,-7 v 3 h 86.3 V 146 c 0,0 13.4,-10.6 29.8,-4.8 13.1,4.7 12.8,21.9 12.8,21.9 v 104.2 h 85 V 136.7 c 0,0 -1.7,-24.5 -11.2,-41.8 -9.5,-17.3 -24.6,-34.6 -61.9,-34.6 z m -249.9,129 c 0,0 -8.5,8 -26.5,8 -18,0 -28.5,-13.3 -28.5,-30.7 0,-17.3 10.5,-31.8 28.5,-31.8 18,0 26.5,8 26.5,8 z"
     fill="url(#b)"
     id="path9"
     style="fill:url(#b)" />
  <path
     d="m 863.3,197.7 c -31.7,0 -35.8,25.4 -35.8,37.8 0,12 5.8,33.2 36.6,33.2 30.8,0 37.6,-20.4 37.6,-34.9 -0.1,-14.6 -6.8,-36.1 -38.4,-36.1 z"
     fill="url(#c)"
     id="path11"
     style="fill:url(#c)" />
  <g
     fill="#0088e6"
     id="g15"
     style="fill:#ffffff;fill-opacity:1">
    <path
       d="m 388,252.6 c -1.4,-1.7 -2.1,-2.8 -2.1,-2.8 0,0 -0.2,0.1 -0.5,0.4 0.8,0.8 1.6,1.6 2.6,2.4 z M 696.9,86.3 c 0,0 17,-19 54.3,-19 21.9,0 36.3,5.9 46.3,14.3 -10.1,-11.9 -25.7,-21.3 -53.3,-21.3 -23.7,0 -37.4,6.3 -47.3,13.2 -4.2,2.9 -7,5.8 -7,5.8 z m -396.5,-15 h 51 v -7 h -58 z m 193.9,118 c 0,0 -8.5,8 -26.5,8 -6.4,0 -14.3,-3 -21.3,-9.2 4.8,7.1 17.9,16.2 28.3,16.2 18,0 26.5,-8 26.5,-8 v -46.5 c 0,0 -2.9,-4 -7,-6.9 z m 100.6,16 c 6.7,1.8 15.5,-1.5 15.5,-1.5 V 71.3 h 79.5 v -7 h -86.5 v 132.5 c 0,0 -11.6,3 -18.2,1.8 2.6,2.7 6.1,5.8 9.7,6.7 z M 358.4,123.7 c 3.2,-9.6 7.9,-19.3 14.8,-27.8 28,-34.5 62.1,-37.8 88.5,-32.8 17.6,3.3 32.3,19.2 32.3,19.2 v -18 h 86.2 v 7 H 501 v 17.8 c 0,0 -14.8,-15.8 -32.3,-19.2 -26.4,-5 -60.5,-1.7 -88.5,32.8 -28,34.5 -19.8,86.5 -19.8,86.5 0,0 -23.3,14.2 -41.7,14.2 -9.6,0 -13.9,-4.5 -15.8,-8.7 2.3,1 5.2,1.7 8.8,1.7 18.3,0 41.7,-14.2 41.7,-14.2 0,0 -3.3,-23.7 1.5,-45.2 1.7,-8.5 3.5,-13.3 3.5,-13.3 z m 374.1,143.6 h 7 v -97.2 c 0,0 0,-18.2 -14.9,-26.1 8.1,6.3 7.9,19.1 7.9,19.1 z M 19.7,138.6 C 13.9,131.5 9.6,120.7 7.8,108.4 4.6,83.8 10.1,53 35.6,31.1 89.2,-5.3 152.3,7.9 179.9,17 c 3,1 5.6,2 7.8,2.8 v -4.1 c 0,0 -5.5,-2.5 -14.8,-5.7 C 145.3,0.9 82.2,-12.3 28.7,24.2 3.1,46.1 -2.4,76.8 0.8,101.4 2.7,114 7.1,124.9 13,132 c 2,2.3 4.3,4.5 6.7,6.6 z m 11,44.4 c 0,0 29,20.3 59.3,25.2 30.3,4.8 43.5,-2.2 43.5,-12.7 0,-5.3 -4.9,-11 -9.1,-14.4 0.8,1.6 2.1,5.4 2.1,7.4 C 126.5,199 113.3,206 83,201.2 52.7,196.3 23.7,176 23.7,176 l -21,72.7 c 0,0 2.7,1.6 7.9,4 z m 184,-13.8 V 22 h 78.7 v -7 h -85.7 v 139.4 c 4.7,7.4 7,14.8 7,14.8 z m 619.7,73.3 c 0,-12.4 4.2,-37.8 35.8,-37.8 11.1,0 19.1,2.7 24.9,6.7 -5.5,-7.8 -15.2,-13.7 -31.9,-13.7 -31.7,0 -35.8,25.4 -35.8,37.8 0,7.9 2.5,19.7 12.9,26.9 -4.6,-6.6 -5.9,-14.3 -5.9,-19.9 z"
       id="path13"
       style="fill:#ffffff;fill-opacity:1" />
  </g>
</svg>
